<?xml version="1.0" encoding="utf-8"?>
<!-- Generator: Adobe Illustrator 19.2.0, SVG Export Plug-In . SVG Version: 6.00 Build 0)  -->
<svg version="1.1" id="Layer_1" xmlns="http://www.w3.org/2000/svg" xmlns:xlink="http://www.w3.org/1999/xlink" x="0px" y="0px"
	 viewBox="0 0 523.2 163.9" style="enable-background:new 0 0 523.2 163.9;" xml:space="preserve">
<style type="text/css">
	.st0{fill:#34B8E7;}
	.st1{fill:#FFFFFF;}
</style>
<g>
	<g>
		<g>
			<polygon class="st0" points="126.8,45.2 116,52.3 96.2,39.3 76.8,26.5 65.8,33.8 58.1,38.8 116,76.9 116,76.9 116,77.7 
				116,101.5 76.8,127.3 37.7,127.3 95.2,89.4 37.7,51.5 37.7,26.2 43.4,22.5 76.9,0.3 116,26.2 126.8,19.1 			"/>
			<polyline class="st1" points="57.6,90.9 20,115.7 0.2,102.6 37.8,77.8 57.6,90.9 			"/>
			<path class="st0" d="M160.7,69.5v19.6v28h-18.8V30h69.2c9.9,0,18.1,8.1,18.1,17.9v22.5c0,9.8-8.1,17.9-18.1,17.9l-21.7,0.1
				 M160.7,69.5h49.4V48.8h-49.4V69.5z"/>
			<path class="st0" d="M324.9,48.8h-61.5v15.3h20.9h28.6V83h-49.6v15.3h61.5v18.9h-80.6V29.9h80.6V48.8z"/>
			<path class="st0" d="M420.6,48.8H359v15.3h49.6V83H359v15.3h61.5v18.9H340V29.9h80.6V48.8z"/>
			<path class="st0" d="M504.9,29.9c9.9,0,18.1,8,18.1,17.9v51.4c0,9.9-8.1,17.9-18.1,17.9h-69.2V29.9H504.9z M454.5,98.2H504V48.8
				h-49.4V98.2z"/>
		</g>
	</g>
	<g>
		<path class="st0" d="M39.1,163.7v-21.6h17.3c1.2,0,2.2,0.4,3,1.3c0.9,0.9,1.3,1.9,1.3,3v5.7c0,1.2-0.4,2.2-1.3,3
			c-0.9,0.9-1.9,1.3-3,1.3l-13,0v7.2H39.1z M44.4,152.1h10.9c0.6,0,0.9,0,1-0.1c0,0,0.1-0.4,0.1-1v-3.7c0-0.6,0-0.9-0.1-0.9
			c0,0-0.4,0-1,0H44.4c-0.6,0-0.9,0-0.9,0c0,0,0,0.3,0,0.9v3.7c0,0.6,0,0.9,0,1C43.5,152.1,43.8,152.1,44.4,152.1z"/>
		<path class="st0" d="M65.4,163.7v-21.6h19.9v4.3H69.8v4.3h12.5v4.3H69.8v4.3h15.6v4.3H65.4z"/>
		<path class="st0" d="M90.9,163.7v-21.6h17.3c1.2,0,2.2,0.4,3,1.3c0.8,0.9,1.3,1.9,1.3,3v5.7c0,1.2-0.4,2.2-1.3,3
			c-0.9,0.9-1.9,1.3-3,1.3h-0.7l5,5.9v1.3h-4.5l-6.1-7.3l-6.6,0v7.2H90.9z M96.2,152.1h10.9c0.6,0,0.9,0,1-0.1s0.1-0.4,0.1-1v-3.7
			c0-0.6,0-0.9-0.1-0.9s-0.4,0-1,0H96.2c-0.6,0-0.9,0-0.9,0c0,0,0,0.3,0,0.9v3.7c0,0.6,0,0.9,0,1C95.3,152.1,95.6,152.1,96.2,152.1z
			"/>
		<path class="st0" d="M118.3,163.7v-21.6h19.9v4.3h-15.6v4.3h12.5v4.3h-12.5v8.6H118.3z"/>
		<path class="st0" d="M146.7,163.7c-1.2,0-2.2-0.4-3.1-1.3c-0.8-0.8-1.3-1.9-1.3-3.1v-13c0-1.2,0.4-2.2,1.3-3.1
			c0.8-0.8,1.9-1.3,3.1-1.3h13c1.2,0,2.2,0.4,3,1.3s1.3,1.9,1.3,3.1v13c0,1.2-0.4,2.2-1.3,3.1s-1.9,1.3-3,1.3H146.7z M147.7,159.4
			h10.9c0.6,0,0.9,0,1-0.1c0,0,0.1-0.4,0.1-1v-10.9c0-0.6,0-0.9-0.1-1c0,0-0.4-0.1-1-0.1h-10.9c-0.6,0-0.9,0-0.9,0.1c0,0,0,0.4,0,1
			v10.9c0,0.6,0,0.9,0,1C146.8,159.3,147.1,159.4,147.7,159.4z"/>
		<path class="st0" d="M169.8,163.7v-21.6h17.3c1.2,0,2.2,0.4,3,1.3c0.8,0.9,1.3,1.9,1.3,3v5.7c0,1.2-0.4,2.2-1.3,3
			c-0.9,0.9-1.9,1.3-3,1.3h-0.7l5,5.9v1.3h-4.5l-6.1-7.3l-6.6,0v7.2H169.8z M175.1,152.1H186c0.6,0,0.9,0,1-0.1s0.1-0.4,0.1-1v-3.7
			c0-0.6,0-0.9-0.1-0.9s-0.4,0-1,0h-10.9c-0.6,0-0.9,0-0.9,0c0,0,0,0.3,0,0.9v3.7c0,0.6,0,0.9,0,1
			C174.2,152.1,174.5,152.1,175.1,152.1z"/>
		<path class="st0" d="M197.1,163.7v-21.6h4.6l7.6,9l7.6-9h4.6v21.6h-4.3v-15.2l-7.8,9.3l-7.8-9.3v15.2H197.1z"/>
		<path class="st0" d="M227.6,163.7v-17.3c0-1.2,0.4-2.2,1.3-3.1s1.9-1.3,3.1-1.3h13c1.2,0,2.2,0.4,3,1.3s1.3,1.9,1.3,3.1v17.3h-4.3
			v-7.1h-12.9v7.1H227.6z M231.9,152.3h12.9v-4.8c0-0.6,0-0.9-0.1-1c0,0-0.4-0.1-1-0.1h-10.9c-0.6,0-0.9,0-0.9,0.1s0,0.4,0,1V152.3z
			"/>
		<path class="st0" d="M255.2,163.7v-21.6h4.6l12.7,15.1v-15.1h4.4v21.6h-4.6l-12.7-15.2v15.2H255.2z"/>
		<path class="st0" d="M287,163.7c-1.2,0-2.2-0.4-3.1-1.3c-0.8-0.8-1.3-1.9-1.3-3.1v-13c0-1.2,0.4-2.2,1.3-3.1
			c0.8-0.8,1.9-1.3,3.1-1.3h17.2v4.3H288c-0.6,0-0.9,0-0.9,0.1s0,0.4,0,1v10.9c0,0.6,0,0.9,0,1s0.3,0.1,0.9,0.1h16.2v4.3H287z"/>
		<path class="st0" d="M309.9,163.7v-21.6h19.9v4.3h-15.6v4.3h12.5v4.3h-12.5v4.3h15.6v4.3H309.9z"/>
		<path class="st0" d="M354.9,163.7v-17.3h-8.6v-4.3h21.6v4.3h-8.6v17.3H354.9z"/>
		<path class="st0" d="M372.7,163.7v-21.6H390c1.2,0,2.2,0.4,3,1.3c0.9,0.9,1.3,1.9,1.3,3v5.7c0,1.2-0.4,2.2-1.3,3
			c-0.8,0.9-1.9,1.3-3,1.3h-0.7l5,5.9v1.3h-4.5l-6.1-7.3l-6.6,0v7.2H372.7z M378,152.1h10.9c0.6,0,0.9,0,1-0.1s0.1-0.4,0.1-1v-3.7
			c0-0.6,0-0.9-0.1-0.9s-0.4,0-1,0H378c-0.6,0-0.9,0-0.9,0c0,0,0,0.3,0,0.9v3.7c0,0.6,0,0.9,0,1C377.1,152.1,377.4,152.1,378,152.1z
			"/>
		<path class="st0" d="M400.1,163.7v-17.3c0-1.2,0.4-2.2,1.3-3.1s1.9-1.3,3.1-1.3h13c1.2,0,2.2,0.4,3,1.3c0.8,0.8,1.3,1.9,1.3,3.1
			v17.3h-4.3v-7.1h-12.9v7.1H400.1z M404.4,152.3h12.9v-4.8c0-0.6,0-0.9-0.1-1s-0.4-0.1-1-0.1h-10.9c-0.6,0-0.9,0-0.9,0.1
			c0,0,0,0.4,0,1V152.3z"/>
		<path class="st0" d="M427.5,163.7v-21.6h4.3v21.6H427.5z"/>
		<path class="st0" d="M436.6,163.7v-21.6h4.6l12.7,15.1v-15.1h4.4v21.6h-4.6l-12.7-15.2v15.2H436.6z"/>
		<path class="st0" d="M464,163.7v-21.6h4.3v21.6H464z"/>
		<path class="st0" d="M473.1,163.7v-21.6h4.6l12.7,15.1v-15.1h4.4v21.6h-4.6l-12.7-15.2v15.2H473.1z"/>
		<path class="st0" d="M504.9,163.7c-1.2,0-2.2-0.4-3.1-1.3c-0.8-0.8-1.3-1.9-1.3-3.1v-13c0-1.2,0.4-2.2,1.3-3.1
			c0.8-0.8,1.9-1.3,3.1-1.3h13c1.2,0,2.2,0.4,3,1.3c0.8,0.8,1.3,1.9,1.3,3.1v1.9h-4.4v-0.8c0-0.6,0-0.9-0.1-1s-0.4-0.1-1-0.1h-10.9
			c-0.6,0-0.9,0-0.9,0.1s0,0.4,0,1v10.9c0,0.6,0,0.9,0,1s0.3,0.1,0.9,0.1h10.9c0.6,0,0.9,0,1-0.1s0.1-0.4,0.1-1v-2.7H513v-4.3h9.2
			v8.1c0,1.2-0.4,2.2-1.3,3.1c-0.9,0.8-1.9,1.3-3,1.3H504.9z"/>
	</g>
</g>
</svg>
