<?xml version="1.0" encoding="utf-8"?>
<!-- Generator: Adobe Illustrator 19.2.0, SVG Export Plug-In . SVG Version: 6.00 Build 0)  -->
<svg version="1.1" id="Layer_1" xmlns="http://www.w3.org/2000/svg" xmlns:xlink="http://www.w3.org/1999/xlink" x="0px" y="0px"
	 viewBox="0 0 522.9 141.5" style="enable-background:new 0 0 522.9 141.5;" xml:space="preserve">
<style type="text/css">
	.st0{fill:#FFE01E;}
	.st1{fill-rule:evenodd;clip-rule:evenodd;}
</style>
<g>
	<path d="M197.5,141.4l-24.7-24.8H92v7H49.5l-19.4-19.4l0-29.2h-8.5L0.2,53.5V0.1h388.9l24.7,24.7h60.7c1.9-3.9,6-7.8,12.5-8
		c3.3,0,7.8,1.6,10.3,4.6l22,22c2.4,2.7,3.5,5.9,3.5,9.9v0.2l0,0.2c-0.5,4.3-2.6,7.9-6,10.3v52.5h-88.9l-13.5,24.8H197.5z"/>
	<path class="st0" d="M514.1,113.9h-87.8l-13.5,24.7H198.6l-24.7-24.7H89.3v7H50.6l-17.8-17.8l0-30.8H22.6L2.9,52.4V2.8h385.1
		l24.7,24.7h63.6c0,0,2.1-7.8,10.7-8c2.8,0,6.5,1.5,8.2,3.7l22.1,22.2c2.1,2.4,2.8,5,2.8,8c-0.5,4.1-2.7,7.3-6.1,9.1L514.1,113.9z"
		/>
	<polygon points="15.4,22.1 15.4,32.8 52.1,32.8 52.1,94.5 63,94.5 63,32.8 327.5,32.8 327.5,22.1 	"/>
	<polygon points="71.9,46.8 71.9,87.6 113.4,87.6 113.4,76.6 82.7,76.6 82.6,71.9 101.7,71.9 101.7,62.1 82.6,62.1 82.6,57.6 
		112.7,57.6 112.7,46.8 	"/>
	<polygon points="173.4,46.8 173.5,87.6 184.2,87.6 184.2,71.9 206.1,71.9 206.1,87.6 216.9,87.6 216.9,46.8 206.1,46.8 206.1,62.1 
		184.2,62.1 184.2,46.8 	"/>
	<polygon points="224.8,46.8 224.8,87.6 235.6,87.6 235.6,58.7 258.4,87.6 273.2,87.6 273.2,46.8 262.4,46.8 262.4,75.7 239.6,46.8 
			"/>
	<path class="st1" d="M293.2,46.8l22.1,0c6.7,0,12.2,5.5,12.2,12.2v16.4c0,6.7-5.5,12.2-12.2,12.2l-22.1,0
		c-6.7,0-12.2-5.5-12.2-12.2V59C281,52.3,286.5,46.8,293.2,46.8 M294.9,57.6h18.8c1.7,0,3,1.4,3,3l0,13c0,1.7-1.4,3-3,3l-18.8,0
		c-1.7,0-3.1-1.4-3.1-3l0-13C291.8,58.9,293.2,57.6,294.9,57.6"/>
	<path d="M154.8,72.1l0,1.4c0,1.7-1.4,3-3,3H133c-1.7,0-3-1.4-3-3l0-13c0-1.7,1.4-3.1,3-3.1l18.8,0c1.7,0,3,1.4,3,3l0,1.5h10.8
		l0-3.1c0-6.7-5.5-12.2-12.2-12.2l-22.1,0c-6.7,0-12.2,5.5-12.2,12.2l0,16.4c0,6.7,5.5,12.2,12.2,12.2h22.1
		c6.7,0,12.2-5.5,12.2-12.2l0-3.2L154.8,72.1z"/>
	<path d="M383.7,32.5v10.8h-34.1c-1.8,0-3.3,1.7-3.3,3.8l0,25.7c0,2.1,1.4,3.8,3.3,3.8l25.4,0v-8.2h-10.6V57.6l21.4,0v30l-37.1,0
		c-7.3,0-13.3-6.8-13.3-15.2l0-24.8c0-8.4,5.9-15.2,13.3-15.2L383.7,32.5z"/>
	<polygon points="471.8,87.6 462.3,87.6 450.1,62.7 450.1,87.6 439.4,87.6 439.3,46.8 454.6,46.8 467,72.1 479.4,46.8 494.7,46.8 
		494.7,87.6 483.9,87.6 483.9,62.7 	"/>
	<polygon points="398.4,112.4 206.1,112.4 206.1,101.5 391.5,101.5 405,76.5 388.8,46.8 401.1,46.8 411.2,65.4 421.2,46.8 
		433.5,46.8 	"/>
	<path d="M478.5,30.8c0-4.7,3.8-8.5,8.5-8.5c4.7,0,8.5,3.8,8.5,8.5c0,4.7-3.8,8.5-8.5,8.5C482.3,39.4,478.5,35.5,478.5,30.8
		 M479.7,30.8c0,4.1,3.3,7.3,7.3,7.3c4.1,0,7.3-3.3,7.3-7.3c0-4-3.3-7.3-7.3-7.3C482.9,23.5,479.7,26.8,479.7,30.8"/>
	<path class="st1" d="M487.8,32.3c0.8,0,1.1,0.5,1.1,1.2v1.6h1.7v-1.6c0-1.2-0.3-1.9-1.5-2v0c1.5-0.2,1.5-1.2,1.5-2.4
		c0-2-0.7-2.6-2.6-2.6h-4.5v8.7h1.7v-2.9H487.8z M485.2,30.9v-3h2.3c1.2,0,1.4,0.2,1.4,1.5c0,1.3-0.3,1.5-1.5,1.5H485.2z"/>
	<path d="M487.8,32.3c0.8,0,1.1,0.5,1.1,1.2v1.6h1.7v-1.6c0-1.2-0.3-1.9-1.5-2v0c1.5-0.2,1.5-1.2,1.5-2.4c0-2-0.7-2.6-2.6-2.6h-4.5
		v8.7h1.7v-2.9H487.8z M485.2,30.9v-3h2.3c1.2,0,1.4,0.2,1.4,1.5c0,1.3-0.3,1.5-1.5,1.5H485.2z"/>
	<path d="M315.3,46.8l-22.1,0c-6.7,0-12.2,5.5-12.2,12.2v16.4c0,6.7,5.5,12.2,12.2,12.2l22.1,0c6.7,0,12.2-5.5,12.2-12.2V59
		C327.5,52.3,322,46.8,315.3,46.8 M316.7,73.6c0,1.7-1.4,3-3,3l-18.8,0c-1.7,0-3-1.4-3-3l0-13c0-1.7,1.4-3,3.1-3h18.8
		c1.7,0,3.1,1.4,3.1,3L316.7,73.6z"/>
</g>
</svg>
