<?xml version="1.0" encoding="utf-8"?>
<!-- Generator: Adobe Illustrator 19.2.0, SVG Export Plug-In . SVG Version: 6.00 Build 0)  -->
<svg version="1.1" id="Layer_1" xmlns="http://www.w3.org/2000/svg" xmlns:xlink="http://www.w3.org/1999/xlink" x="0px" y="0px"
	 viewBox="0 0 251.7 142.4" style="enable-background:new 0 0 251.7 142.4;" xml:space="preserve">
<style type="text/css">
	.st0{fill-rule:evenodd;clip-rule:evenodd;fill:#FFFFFF;}
</style>
<g>
	<path class="st0" d="M17.8,134.7c0,2.5-0.7,4.3-2.2,5.6c-1.5,1.3-3.7,2-6.6,2c-2.9,0-5.1-0.7-6.6-2c-1.5-1.3-2.2-3.2-2.2-5.6V122
		h5.1v12.4c0,1.4,0.3,2.4,0.9,3.1c0.6,0.7,1.5,1,2.8,1c1.3,0,2.2-0.3,2.8-1c0.6-0.7,0.9-1.7,0.9-3.1V122h5.1V134.7L17.8,134.7z
		 M40.7,141.9h-4.9l-8.4-13.6v13.6h-4.7V122h6.1l7.2,11.4V122h4.7V141.9L40.7,141.9z M64.5,132c0,1.8-0.4,3.5-1.3,5
		c-0.8,1.5-1.9,2.6-3.2,3.4c-1,0.6-2,1-3.2,1.2c-1.2,0.2-2.5,0.3-4.1,0.3h-7V122h7.2c1.6,0,3,0.1,4.2,0.4c1.2,0.3,2.2,0.7,3,1.2
		c1.4,0.8,2.4,2,3.2,3.4C64.1,128.4,64.5,130.1,64.5,132L64.5,132z M59.2,132c0-1.3-0.2-2.4-0.7-3.3c-0.5-0.9-1.2-1.7-2.3-2.2
		c-0.5-0.3-1.1-0.4-1.6-0.5c-0.5-0.1-1.4-0.1-2.5-0.1h-1.3v12.4h1.3c1.2,0,2.1-0.1,2.7-0.2c0.6-0.1,1.1-0.3,1.7-0.6
		c0.9-0.5,1.6-1.2,2.1-2.1C59,134.4,59.2,133.3,59.2,132L59.2,132z M82.8,141.9H68.4V122h14.4v3.8h-9.3v3.4h8.6v3.8h-8.6v4.9h9.3
		V141.9L82.8,141.9z M98.2,128.1c0-0.5-0.1-0.9-0.3-1.3c-0.2-0.4-0.6-0.6-1.1-0.8c-0.3-0.1-0.8-0.2-1.2-0.3c-0.5,0-1-0.1-1.6-0.1
		h-1.9v5.3h1.6c0.8,0,1.5,0,2.1-0.1c0.6-0.1,1-0.3,1.4-0.5c0.4-0.3,0.6-0.6,0.8-0.9C98.1,129.1,98.2,128.7,98.2,128.1L98.2,128.1z
		 M106.2,141.9h-6.3l-5.4-7.3h-2.4v7.3h-5.1V122h8.6c1.2,0,2.2,0.1,3,0.2c0.8,0.1,1.6,0.4,2.4,0.9c0.7,0.4,1.3,1,1.8,1.7
		c0.4,0.7,0.7,1.6,0.7,2.7c0,1.5-0.3,2.7-1,3.6c-0.7,0.9-1.7,1.7-2.9,2.3L106.2,141.9L106.2,141.9z M136.1,141.9h-5.3l-1.4-4h-7.4
		l-1.4,4h-5.2l7.3-19.9h5.9L136.1,141.9L136.1,141.9z M128.2,134.2l-2.4-7.1l-2.4,7.1H128.2L128.2,134.2z M150.1,128.1
		c0-0.5-0.1-0.9-0.3-1.3c-0.2-0.4-0.6-0.6-1.1-0.8c-0.3-0.1-0.8-0.2-1.2-0.3c-0.5,0-1-0.1-1.6-0.1h-1.9v5.3h1.6c0.8,0,1.5,0,2.1-0.1
		c0.6-0.1,1-0.3,1.4-0.5c0.4-0.3,0.6-0.6,0.8-0.9C150,129.1,150.1,128.7,150.1,128.1L150.1,128.1z M158.1,141.9h-6.3l-5.4-7.3h-2.4
		v7.3H139V122h8.6c1.2,0,2.2,0.1,3,0.2c0.8,0.1,1.6,0.4,2.4,0.9c0.7,0.4,1.3,1,1.8,1.7c0.4,0.7,0.7,1.6,0.7,2.7c0,1.5-0.3,2.7-1,3.6
		c-0.7,0.9-1.7,1.7-2.9,2.3L158.1,141.9L158.1,141.9z M181.2,141.9h-5.1v-13.3l-3.7,8.6h-3.5l-3.7-8.6v13.3h-4.8V122h5.9l4.5,10
		l4.5-10h6V141.9L181.2,141.9z M205.5,132c0,3.2-0.9,5.7-2.7,7.5c-1.8,1.9-4.3,2.8-7.5,2.8c-3.2,0-5.7-0.9-7.5-2.8
		c-1.8-1.9-2.7-4.4-2.7-7.5c0-3.2,0.9-5.7,2.7-7.6c1.8-1.9,4.3-2.8,7.5-2.8c3.2,0,5.7,0.9,7.5,2.8
		C204.6,126.3,205.5,128.8,205.5,132L205.5,132z M198.8,137c0.5-0.6,0.9-1.3,1.1-2.1c0.2-0.8,0.4-1.8,0.4-2.9c0-1.2-0.1-2.2-0.4-3
		c-0.3-0.8-0.6-1.5-1.1-2c-0.5-0.5-1-0.9-1.6-1.2c-0.6-0.2-1.2-0.4-1.8-0.4c-0.7,0-1.3,0.1-1.8,0.3c-0.6,0.2-1.1,0.6-1.6,1.1
		c-0.4,0.5-0.8,1.2-1.1,2.1c-0.3,0.9-0.4,1.9-0.4,3c0,1.2,0.1,2.2,0.4,3c0.3,0.8,0.6,1.5,1.1,2c0.4,0.5,1,0.9,1.6,1.2
		c0.6,0.2,1.2,0.4,1.9,0.4c0.7,0,1.3-0.1,1.9-0.4C197.8,137.9,198.3,137.5,198.8,137L198.8,137z M226.8,134.7c0,2.5-0.7,4.3-2.2,5.6
		c-1.5,1.3-3.7,2-6.6,2c-2.9,0-5.1-0.7-6.6-2c-1.5-1.3-2.2-3.2-2.2-5.6V122h5.1v12.4c0,1.4,0.3,2.4,0.9,3.1c0.6,0.7,1.5,1,2.8,1
		c1.3,0,2.2-0.3,2.8-1c0.6-0.7,0.9-1.7,0.9-3.1V122h5.1V134.7L226.8,134.7z M242.8,128.1c0-0.5-0.1-0.9-0.3-1.3
		c-0.2-0.4-0.6-0.6-1.1-0.8c-0.3-0.1-0.8-0.2-1.2-0.3c-0.5,0-1-0.1-1.6-0.1h-1.9v5.3h1.6c0.8,0,1.5,0,2.1-0.1c0.6-0.1,1-0.3,1.4-0.5
		c0.4-0.3,0.6-0.6,0.8-0.9C242.7,129.1,242.8,128.7,242.8,128.1L242.8,128.1z M250.8,141.9h-6.3l-5.4-7.3h-2.4v7.3h-5.1V122h8.6
		c1.2,0,2.2,0.1,3,0.2c0.8,0.1,1.6,0.4,2.4,0.9c0.7,0.4,1.3,1,1.8,1.7c0.4,0.7,0.7,1.6,0.7,2.7c0,1.5-0.3,2.7-1,3.6
		c-0.7,0.9-1.7,1.7-2.9,2.3L250.8,141.9L250.8,141.9z M22.6,15.5C39.3,8.7,56.4,2.7,74.5,0.1c0.5,13.8,0.9,27.6,1.4,41.3
		c1.6,2.9,3.6,5.6,5.9,7.9c27.2-6.7,54.6-6.7,82.4-0.2c2.4-2.3,4.6-4.8,6.5-7.5c0-13.8,0-27.7,0-41.5c15.2,2,30.5,6.3,45.7,15.4
		c5.4,15.1-9.4,28.1-29.9,40.5c20.6,12.4,35.3,25.4,29.9,40.5c-15.2,9.1-30.5,13.4-45.7,15.4c0-13.8,0-27.7,0-41.5
		c-1.9-2.8-4.1-5.3-6.5-7.5c-27.8,6.5-55.3,6.5-82.4-0.2c-2.3,2.4-4.3,5-5.9,7.9C75.4,84.4,75,98.2,74.5,112
		c-18.1-2.6-35.2-8.6-51.9-15.4C29.2,77.6,41.9,64.1,60.5,56C41.9,48,29.2,34.5,22.6,15.5L22.6,15.5z M90.2,56c18,11,45.3,11,64.6,0
		C135.4,45,108.2,45,90.2,56L90.2,56z"/>
</g>
</svg>
